<?xml version="1.0" encoding="utf-8"?>
<!-- Generator: Adobe Illustrator 26.0.3, SVG Export Plug-In . SVG Version: 6.00 Build 0)  -->
<svg version="1.1" id="Group_245" xmlns="http://www.w3.org/2000/svg" xmlns:xlink="http://www.w3.org/1999/xlink" x="0px" y="0px"
	 viewBox="0 0 591.5 577.3" style="enable-background:new 0 0 591.5 577.3;" xml:space="preserve">
<style type="text/css">
	.st0{fill:#BF0013;}
	.st1{fill:#FFFFFF;}
	.st2{fill-rule:evenodd;clip-rule:evenodd;fill:#FFFFFF;}
</style>
<g>
	<circle id="Ellipse_74" class="st0" cx="295.8" cy="288.6" r="284.3"/>
	<path id="Path_2000" class="st1" d="M314.5,156.1h30v31h47.8v28.1H345v69.2c0,10.3,3.3,38.6,22.3,50.4c9.8,6.1,21.1,9.4,32.7,9.6
		v29.5c0,0-42.8,3.5-68.4-32.2c-12.3-16.8-18.4-37.3-17-58.1v-68.4h-39.9v78.3c0,8.9-8.4,45.6-28.8,61c-20.4,15.4-30.9,19.5-57.8,20
		v-29.1c0,0,34.6-0.3,46.3-22.8c11.7-22.6,9.3-46.5,9.3-57.6v-49.7h-47.8v-28.1h118.6L314.5,156.1z"/>
	<path id="Path_2001" class="st2" d="M234.4,404.1h33.3v8.6h-11V453h-10.8v-40.3h-11.5L234.4,404.1z M288.3,403.8h9.3v37.8
		c-0.5,7.2-6.7,12.8-14,12.4c-10,0-10.3-2.9-10.3-2.9l3.6-7c2.1,1.2,4.6,1.6,7,1.3c2.8-0.9,4.4-1.5,4.4-8.6L288.3,403.8z M317,403.8
		h9.9v31.7c0,5.2,4,9.5,9.1,9.8c6.6,0,8.7-5,8.7-11.3v-30h9.8v31.4c0,4.7-3.3,18.1-17.6,18.1c-14.3,0-20-7.3-20-18L317,403.8z"/>
	<path class="st1" d="M295.8,557.3c-151.1,0-274.1-120.5-274.1-268.6S144.6,20,295.8,20c151.1,0,274.1,120.5,274.1,268.6
		S446.9,557.3,295.8,557.3z M295.8,23.4c-149.3,0-270.7,119-270.7,265.2s121.4,265.2,270.7,265.2c149.2,0,270.7-119,270.7-265.2
		S445,23.4,295.8,23.4z"/>
	<path class="st1" d="M296.2,474.5c-105,0-190.4-83.7-190.4-186.5s85.4-186.5,190.4-186.5c105,0,190.4,83.7,190.4,186.5
		S401.2,474.5,296.2,474.5z M296.2,104.5c-103.3,0-187.3,82.3-187.3,183.4s84,183.4,187.3,183.4c103.3,0,187.3-82.3,187.3-183.4
		S399.5,104.5,296.2,104.5z"/>
	<g>
		<path class="st1" d="M71.6,299.2L54.5,299l0.1-4l17.1,0.2l0.1-5.3l3.6,0l-0.2,14.6l-3.6,0L71.6,299.2z"/>
		<path class="st1" d="M57.1,319.8c-1.4-1.3-2.2-3.1-2.4-5.2c-0.1-2.1,0.4-4,1.6-5.4c1.3-1.5,3-2.4,5.1-2.5l13.6-0.9l0.3,4
			l-13.4,0.9c-2.3,0.2-3.7,1.5-3.6,3.8s1.7,3.4,4,3.3l13.4-0.9l0.3,3.9l-13.6,0.9C60.3,321.8,58.6,321.2,57.1,319.8z"/>
		<path class="st1" d="M57.6,337.1l7.6-5.2l-0.4-2.8l-8.2,1.2l-0.6-3.9l20.5-3.1l1.2,7.9c0.3,1.9,0,3.5-1,4.9
			c-1,1.4-2.4,2.3-4.3,2.6c-2.5,0.4-4.7-0.6-5.9-2.9l-8.1,5.8L57.6,337.1z M74,331.5l-0.6-3.7l-5.4,0.8l0.6,3.7
			c0.3,1.7,1.5,2.7,3.1,2.4C73.4,334.5,74.3,333.2,74,331.5z"/>
		<path class="st1" d="M61.8,356.4l7.9-7.3l-3.7-1.8l-6,1.5l-0.9-3.9l20.1-4.9l0.9,3.9l-8.8,2.1l10.5,4.9l1.1,4.7l-9.6-4.6l-10.4,10
			L61.8,356.4z"/>
		<path class="st1" d="M63.7,363l19.8-6.1l1.2,3.8l-19.8,6.1L63.7,363z"/>
		<path class="st1" d="M71.2,380.6c-1.4-0.9-2.5-2.4-3.2-4.4c-1.1-3-1.1-5.6,0-7.9l3.4,1.5c-0.7,1.5-0.7,3.2,0.1,5.2
			c0.8,2.3,2.1,3.1,3.7,2.5c1.3-0.5,1.8-1.5,1.5-3.1l-0.5-2.4c-0.8-3.6,0.4-5.9,3.5-7.1c1.9-0.7,3.6-0.6,5.2,0.3
			c1.4,0.8,2.5,2.2,3.2,4.1c1,2.6,1,4.9,0,7l-3.3-1.5c0.6-1.2,0.5-2.7-0.1-4.4c-0.3-0.8-0.8-1.4-1.3-1.8c-0.7-0.5-1.4-0.5-2.2-0.2
			c-1.2,0.5-1.6,1.5-1.3,3.1l0.5,2.4c0.8,3.6-0.5,6-3.7,7.2C74.5,381.9,72.8,381.7,71.2,380.6z"/>
		<path class="st1" d="M76.8,396.5l7.8-3.7l-2.9-6.2l-7.8,3.7l-1.7-3.6l18.7-8.8l1.7,3.6l-7.7,3.6l2.9,6.2l7.7-3.6l1.7,3.6
			l-18.7,8.8L76.8,396.5z"/>
		<path class="st1" d="M89.1,415.3c-1.8-0.5-3.2-1.7-4.3-3.4c-1.1-1.8-1.4-3.6-0.9-5.6l3.6,0.9c-0.3,1.1-0.2,2,0.3,2.8
			c1.1,1.8,2.7,2.1,4.7,0.9l11.8-7.1l2.1,3.4l-11.9,7.2C92.7,415.5,90.9,415.8,89.1,415.3z"/>
		<path class="st1" d="M97.1,430.3l2.3-3.1l-4.1-5.9l-3.7,1.1l-2.4-3.4l21.2-5.8l1.8,2.6l-12.7,18L97.1,430.3z M106.4,418.1
			l-7.7,2.2l2.9,4.2L106.4,418.1z"/>
		<path class="st1" d="M116.5,439.4c-1.7-0.2-3.2-1.1-4.4-2.6l-2.5-3l-6,4.9l-2.5-3.1l16-13.1l5,6.1c1.2,1.5,1.8,3.1,1.7,4.8
			c-0.1,1.8-0.9,3.2-2.4,4.5C119.8,439.1,118.2,439.6,116.5,439.4z M119.1,430.7l-2.4-2.9l-4.4,3.6l2.4,2.9c1.1,1.4,2.7,1.6,4.1,0.5
			C120.2,433.7,120.3,432.1,119.1,430.7z"/>
		<path class="st1" d="M119.2,456.3l1.8-3.4l-5-5.3l-3.5,1.6l-2.9-3l20.1-8.8l2.1,2.3l-9.9,19.6L119.2,456.3z M126.5,442.8l-7.2,3.3
			l3.5,3.7L126.5,442.8z"/>
		<path class="st1" d="M132.8,469l2.5-14.8l-8.5,9.4l-3-2.7l13.9-15.4l2.6,2.4l-2.5,14.8l8.5-9.4l3,2.7l-13.9,15.4L132.8,469z"/>
		<path class="st1" d="M139,474.3l12.6-16.4l10.7,8.2l-2.2,2.9l-7.5-5.8l-3,3.9l6.4,4.9l-2.2,2.9l-6.4-4.9l-3.1,4l7.5,5.8l-2.2,2.9
			L139,474.3z"/>
		<path class="st1" d="M162.4,489.5c-1.7,0.1-3.4-0.5-5.2-1.6c-2.7-1.8-4.2-3.9-4.7-6.4l3.6-0.8c0.3,1.6,1.4,3,3.1,4.2
			c2,1.3,3.5,1.3,4.4-0.1c0.8-1.2,0.6-2.3-0.7-3.4l-1.9-1.7c-2.7-2.4-3.2-5-1.3-7.8c1.1-1.7,2.6-2.6,4.4-2.8c1.7-0.2,3.3,0.3,5,1.4
			c2.3,1.5,3.7,3.4,4.2,5.6l-3.5,0.7c-0.3-1.3-1.2-2.5-2.7-3.5c-0.7-0.5-1.5-0.7-2.2-0.7c-0.8,0-1.4,0.4-1.9,1.1
			c-0.7,1.1-0.4,2.2,0.8,3.3l1.8,1.6c2.7,2.4,3.2,5.1,1.3,8C165.9,488.5,164.4,489.4,162.4,489.5z"/>
		<path class="st1" d="M166.6,493.7l10.2-18l11.7,6.6l-1.8,3.1l-8.2-4.7l-2.4,4.2l7,4l-1.8,3.1l-7-4l-2.5,4.4l8.2,4.7l-1.8,3.1
			L166.6,493.7z"/>
		<path class="st1" d="M197.2,507.7c-1.7,0.4-3.5,0.1-5.4-0.8c-2.9-1.3-4.8-3.2-5.7-5.6l3.4-1.3c0.6,1.5,1.8,2.7,3.8,3.6
			c2.2,1,3.6,0.7,4.3-0.8c0.6-1.3,0.2-2.4-1.2-3.3l-2.1-1.3c-3.1-1.9-3.9-4.5-2.6-7.5c0.8-1.8,2.1-3,3.9-3.4
			c1.6-0.4,3.3-0.2,5.2,0.6c2.5,1.1,4.2,2.8,5,4.9l-3.3,1.3c-0.5-1.3-1.6-2.3-3.2-3c-0.8-0.4-1.5-0.5-2.2-0.3
			c-0.8,0.2-1.4,0.6-1.7,1.4c-0.5,1.2-0.1,2.2,1.3,3.1l2.1,1.3c3.1,2,3.9,4.6,2.5,7.7C200.4,506.2,199.1,507.4,197.2,507.7z"/>
		<path class="st1" d="M208.4,513.8c-2-0.8-3.5-2.1-4.4-4c-0.5-1.2-0.7-2.5-0.4-4c0.2-0.8,0.6-2.3,1.4-4.5c0.8-2.2,1.4-3.6,1.8-4.3
			c0.7-1.3,1.7-2.2,2.9-2.7c1.9-0.9,3.9-1,5.9-0.2c3.8,1.4,5.6,4.7,4.8,8.7l-3.8-1.4c0.2-2-0.5-3.3-2.2-3.9
			c-1.1-0.4-2.2-0.3-3.1,0.3c-0.7,0.5-1.6,2.2-2.7,4.9c-0.6,1.5-0.9,2.5-1,2.9c-0.7,2.5,0,4.2,1.9,4.9c1.7,0.6,3.1,0.1,4.2-1.6
			l3.8,1.4C215.6,513.8,212.1,515.2,208.4,513.8z"/>
		<path class="st1" d="M218.3,517l6.2-19.8l3.8,1.2l-6.2,19.8L218.3,517z"/>
		<path class="st1" d="M226.2,519.5l5.2-20l13,3.4l-0.9,3.5l-9.2-2.4l-1.2,4.7l7.8,2l-0.9,3.5l-7.8-2l-1.3,4.9l9.2,2.4l-0.9,3.5
			L226.2,519.5z"/>
		<path class="st1" d="M254.6,525.8l-5.7-13.9l-2.3,12.5l-3.9-0.7l3.7-20.4l3.5,0.6l5.7,13.9l2.3-12.5l3.9,0.7l-3.7,20.4
			L254.6,525.8z"/>
		<path class="st1" d="M269.4,527.9c-2.2-0.2-3.9-1.2-5.2-2.8c-0.8-1-1.3-2.3-1.4-3.7c-0.1-0.9,0-2.4,0.3-4.7
			c0.2-2.3,0.5-3.8,0.7-4.6c0.4-1.4,1.1-2.5,2.1-3.4c1.6-1.3,3.5-1.9,5.7-1.7c4.1,0.4,6.6,3.1,6.8,7.3l-4-0.4
			c-0.3-2-1.3-3.1-3.1-3.3c-1.2-0.1-2.2,0.2-2.9,1.1c-0.6,0.7-1,2.5-1.4,5.4c-0.2,1.6-0.2,2.6-0.3,3c0,2.6,1,4,3.1,4.2
			c1.8,0.2,3-0.7,3.7-2.6l4,0.4C276.5,526.2,273.4,528.4,269.4,527.9z"/>
		<path class="st1" d="M280.1,528.7l0.8-20.7l13.4,0.5l-0.1,3.6l-9.4-0.4l-0.2,4.9l8,0.3l-0.1,3.6l-8-0.3l-0.2,5l9.4,0.4l-0.1,3.6
			L280.1,528.7z"/>
		<path class="st1" d="M314.5,528.5l-1.4-3.6l-7.2,0.4l-1,3.7l-4.1,0.3l6.2-21.1l3.1-0.2l8.7,20.2L314.5,528.5z M308.9,514.2
			l-2.1,7.7l5.1-0.3L308.9,514.2z"/>
		<path class="st1" d="M332.8,526.6l-9.6-11.6l1.6,12.6l-4,0.5l-2.6-20.5l3.5-0.4l9.6,11.6l-1.6-12.6l4-0.5l2.6,20.5L332.8,526.6z"
			/>
		<path class="st1" d="M354,516.7c0.2,3.9-2.1,6.5-6,7.2l-7.2,1.5l-4.1-20.3l7.2-1.5c1.9-0.4,3.6-0.2,5,0.5c1.5,0.7,2.6,2,3.3,3.8
			c0.3,0.7,0.6,2.1,1.1,4.3C353.7,514.4,353.9,515.9,354,516.7z M348.7,510.3c-0.4-1.1-0.8-1.9-1.3-2.4c-0.8-0.7-1.9-0.9-3.2-0.7
			l-2.9,0.6L344,521l2.9-0.6c1.3-0.3,2.2-0.9,2.7-1.8c0.3-0.6,0.4-1.5,0.3-2.8c-0.1-0.5-0.2-1.4-0.5-2.8
			C349,511.6,348.8,510.7,348.7,510.3z"/>
		<path class="st1" d="M367.1,501.4l4.9,16.4l-3.8,1.1l-4.9-16.4l-5.1,1.5l-1-3.5l14-4.2l1,3.5L367.1,501.4z"/>
		<path class="st1" d="M379.9,515.2l-7.2-19.4l12.6-4.7l1.3,3.4l-8.9,3.3l1.7,4.5l7.5-2.8l1.3,3.4l-7.5,2.8l1.8,4.7l8.9-3.3l1.3,3.4
			L379.9,515.2z"/>
		<path class="st1" d="M402.2,506.5c-2,0.9-4,1-5.9,0.2c-1.2-0.5-2.3-1.3-3.1-2.5c-0.5-0.7-1.2-2.1-2.1-4.2c-1-2.1-1.5-3.5-1.7-4.4
			c-0.4-1.4-0.3-2.8,0.1-4c0.7-2,2.1-3.4,4.1-4.3c3.7-1.7,7.2-0.6,9.5,2.8l-3.7,1.7c-1.3-1.6-2.7-2-4.3-1.2c-1.1,0.5-1.7,1.3-2,2.4
			c-0.2,0.9,0.4,2.7,1.6,5.4c0.7,1.5,1.1,2.4,1.3,2.7c1.3,2.2,2.9,3,4.8,2.1c1.6-0.7,2.3-2.1,1.9-4.1l3.7-1.7
			C407.4,501.4,405.8,504.8,402.2,506.5z"/>
		<path class="st1" d="M421.4,496.5l-4.2-7.6l-6.1,3.3l4.2,7.6l-3.5,1.9l-10-18.2l3.5-1.9l4.1,7.4l6.1-3.3l-4.1-7.4l3.5-1.9l10,18.2
			L421.4,496.5z"/>
		<path class="st1" d="M438.9,485.5l-13.7-6.2l7,10.6l-3.3,2.2l-11.4-17.3l3-2l13.7,6.1l-7-10.6l3.3-2.2l11.4,17.3L438.9,485.5z"/>
		<path class="st1" d="M453.3,467.7c0.7,1.3,0.9,2.6,0.8,3.9c-0.2,2.1-1.2,3.8-2.9,5.2c-1.7,1.4-3.7,1.9-5.8,1.6
			c-1.3-0.2-2.5-0.7-3.6-1.7c-0.6-0.6-1.6-1.7-3.1-3.6c-1.4-1.8-2.3-3.1-2.7-3.8c-0.7-1.3-0.9-2.6-0.8-3.9c0.2-2.1,1.2-3.8,3-5.2
			c1.7-1.3,3.6-1.9,5.7-1.6c1.3,0.2,2.5,0.7,3.6,1.7c0.7,0.7,1.7,1.8,3.1,3.5C451.9,465.6,452.8,466.9,453.3,467.7z M445.6,464
			c-1.8-1.9-3.5-2.2-5.1-0.9c-1.7,1.3-1.8,3-0.4,5.2c0.2,0.3,0.8,1.2,1.8,2.4c1,1.3,1.6,2,1.9,2.4c1.8,1.9,3.5,2.2,5.1,0.9
			c0.9-0.7,1.4-1.7,1.3-2.8c0-0.9-1-2.5-2.8-4.8C446.5,465,445.8,464.3,445.6,464z"/>
		<path class="st1" d="M459.9,469.5L446,454.1l3-2.7l11.4,12.7l6.9-6.2l2.4,2.7L459.9,469.5z"/>
		<path class="st1" d="M477.6,444.4c0.9,1.2,1.3,2.5,1.3,3.8c0.1,2.1-0.7,4-2.2,5.5c-1.5,1.6-3.3,2.4-5.5,2.4
			c-1.3,0-2.6-0.4-3.8-1.2c-0.7-0.5-1.9-1.5-3.5-3.1c-1.7-1.6-2.7-2.7-3.2-3.4c-0.9-1.2-1.3-2.5-1.3-3.8c-0.1-2.1,0.7-4,2.2-5.6
			c1.5-1.6,3.3-2.4,5.4-2.4c1.3,0,2.6,0.4,3.8,1.2c0.8,0.5,2,1.5,3.6,3.1C476,442.5,477,443.7,477.6,444.4z M469.4,441.8
			c-2-1.6-3.8-1.7-5.2-0.2c-1.5,1.5-1.3,3.2,0.4,5.2c0.3,0.3,1,1,2.1,2.1s1.9,1.8,2.2,2.1c2,1.6,3.8,1.7,5.2,0.2
			c0.8-0.8,1.1-1.9,0.9-3c-0.2-0.9-1.3-2.3-3.4-4.4C470.5,442.8,469.7,442.1,469.4,441.8z"/>
		<path class="st1" d="M490.7,434.1c0.4,2.1-0.2,4.1-1.8,6.1c-1.4,1.7-3.1,2.6-5.2,2.8c-1.3,0.1-2.6-0.2-3.9-0.9
			c-0.7-0.4-2-1.3-3.8-2.8c-1.8-1.5-2.9-2.5-3.5-3.2c-1-1.1-1.5-2.3-1.6-3.6c-0.2-2.1,0.4-4,1.7-5.7c2.6-3.2,6.4-3.8,10-1.7
			l-2.6,3.1c-1.9-0.9-3.4-0.6-4.7,0.9c-1.3,1.6-1,3.3,0.8,5.2c0.3,0.3,1.1,1,2.3,2c1.2,1,2,1.6,2.4,1.9c2.2,1.4,3.9,1.4,5.2-0.2
			c1.5-1.8,1.2-3.9-0.6-5.4l-0.6-0.5l-2.4,2.9l-2.6-2.1l4.9-5.9l2.3,1.9C489.2,430.3,490.3,432.1,490.7,434.1z"/>
		<path class="st1" d="M493.5,419.7l6.9,4.9l-2.3,3.2l-6.9-4.9l-13.5-2l2.5-3.5l9,1.7l-4.6-7.9l2.5-3.5L493.5,419.7z"/>
		<path class="st1" d="M512.9,400.9c0.5,1.9,0.2,3.8-0.9,5.7c-1.1,1.9-2.5,3.1-4.3,3.7c-1.9,0.6-3.8,0.4-5.7-0.7l-11.9-6.7l2-3.5
			l11.7,6.6c2,1.1,3.9,0.8,5-1.2c1.1-2,0.4-3.8-1.6-5l-11.7-6.6l1.9-3.4l11.9,6.7C511.2,397.5,512.4,398.9,512.9,400.9z"/>
		<path class="st1" d="M522.5,385l-14.9,2.1l11.6,5.3l-1.6,3.6l-18.8-8.6l1.5-3.2L515,382l-11.5-5.2l1.6-3.6l18.8,8.6L522.5,385z"/>
		<path class="st1" d="M525.5,377.6l-19.4-7.3l1.4-3.7l19.4,7.3L525.5,377.6z"/>
		<path class="st1" d="M530.7,362.7l-0.9,2.8l-21.8,0.2l1.2-3.9l14.1,0.2l-11.6-8l1.3-4L530.7,362.7z"/>
		<path class="st1" d="M533.3,354l-20.2-4.7l3.1-13.1l3.5,0.8l-2.2,9.2l4.7,1.1l1.8-7.8l3.5,0.8l-1.8,7.8l4.9,1.1l2.2-9.2l3.5,0.8
			L533.3,354z"/>
		<path class="st1" d="M538.6,326.5l-8.7,2.7l-0.4,2.8l8.2,1.2l-0.6,3.9l-20.5-3l1.2-7.9c0.3-1.9,1.1-3.4,2.4-4.4
			c1.4-1.1,3-1.5,4.9-1.2c2.5,0.4,4.3,2,4.8,4.5l9.5-3.2L538.6,326.5z M521.3,327l-0.6,3.7l5.4,0.8l0.6-3.7c0.2-1.7-0.6-3-2.3-3.3
			C522.7,324.3,521.5,325.4,521.3,327z"/>
		<path class="st1" d="M538.9,307.9c0.9,1.4,1.3,3.2,1.2,5.3c-0.2,3.2-1.3,5.6-3.2,7.2l-2.4-2.7c1.2-1.1,1.9-2.7,2.1-4.8
			c0.2-2.4-0.6-3.7-2.3-3.8c-1.4-0.1-2.3,0.7-2.6,2.3l-0.5,2.4c-0.7,3.6-2.8,5.2-6.1,5c-2-0.1-3.5-1-4.6-2.4c-1-1.4-1.4-3-1.2-5.1
			c0.2-2.7,1.1-4.9,2.8-6.4l2.4,2.7c-1,0.9-1.6,2.3-1.7,4.1c-0.1,0.9,0.1,1.6,0.5,2.2c0.4,0.7,1.1,1,1.9,1.1
			c1.3,0.1,2.1-0.7,2.5-2.3l0.5-2.4c0.8-3.6,2.9-5.3,6.3-5.1C536.4,305.3,537.9,306.2,538.9,307.9z"/>
		<path class="st1" d="M540.4,302.3l-20.7-0.2l0-4l20.7,0.2L540.4,302.3z"/>
		<path class="st1" d="M523,287l17.1-1.1l0.2,4l-17.1,1.1l0.3,5.3l-3.6,0.2l-0.9-14.6l3.6-0.2L523,287z"/>
		<path class="st1" d="M530.2,271.1l8.4-1l0.5,3.9l-8.4,1l-11.4,7.5l-0.5-4.3l7.8-4.8l-8.7-2.7l-0.5-4.3L530.2,271.1z"/>
	</g>
	<g>
		<path class="st1" d="M63.3,227.1l16.5,4.6l-1.1,4l-16.5-4.6l-1.5,5.3l-3.5-1l4.1-14.6l3.5,1L63.3,227.1z"/>
		<path class="st1" d="M61,215.4l-3.4-1.2l1.3-3.7l3.4,1.2L61,215.4z M63.3,209.3l-3.4-1.2l1.3-3.7l3.4,1.2L63.3,209.3z M84.4,212.5
			c0.8,1.8,0.7,3.8,0,5.9c-0.8,2.1-2,3.6-3.8,4.5c-1.8,1-3.7,1.1-5.7,0.3l-12.8-4.7l1.4-3.9l12.6,4.6c2.2,0.8,4,0.1,4.8-2.1
			c0.8-2.2-0.2-4-2.3-4.8L66,207.8l1.4-3.8l12.8,4.7C82.2,209.3,83.6,210.6,84.4,212.5z"/>
		<path class="st1" d="M92.5,198.6l-9.2,0.3l-1.2,2.7l7.5,3.5l-1.7,3.8L69,200.1l3.5-7.5c0.8-1.8,2-3.1,3.6-3.7
			c1.6-0.7,3.3-0.6,5,0.2c2.3,1.1,3.6,3.2,3.3,5.8l10.1-0.6L92.5,198.6z M75.6,194.3l-1.6,3.5l5,2.3l1.6-3.5
			c0.7-1.6,0.3-3.2-1.2-3.9C77.8,192.1,76.3,192.8,75.6,194.3z"/>
		<path class="st1" d="M101.1,182.5l-10.9,0.1l1.4,4l5.4,3l-2,3.6L77,183l2-3.6l7.9,4.4l-4.2-10.9l2.5-4.4l3.7,10.1l14.6-0.4
			L101.1,182.5z"/>
		<path class="st1" d="M109.9,165.8c0.2,1.9-0.3,3.7-1.5,5.5c-1.2,1.8-2.8,2.9-4.8,3.3l-0.6-3.8c1.1-0.2,1.9-0.7,2.5-1.6
			c1.3-1.8,0.9-3.4-1-4.8l-11.3-7.8l2.4-3.4l11.4,7.9C108.7,162.4,109.7,164,109.9,165.8z"/>
		<path class="st1" d="M121,154.2l-3.6-1.3l-4.7,5.9l2.1,3.3l-2.7,3.4l-11.5-18.9l2-2.5l21,6.8L121,154.2z M106.5,149.1l4.2,6.8
			l3.3-4.1L106.5,149.1z"/>
		<path class="st1" d="M125.9,134.4c0,1.8-0.7,3.4-2.1,4.9l-2.8,3l5.7,5.3l-2.8,3l-15.2-14l5.6-6c1.4-1.5,2.9-2.3,4.7-2.5
			c1.8-0.2,3.4,0.4,4.8,1.7C125.3,131.1,126,132.6,125.9,134.4z M116.9,133.1l-2.6,2.8l4.2,3.8l2.6-2.8c1.2-1.3,1.3-3,0-4.2
			C119.8,131.6,118.1,131.8,116.9,133.1z"/>
		<path class="st1" d="M142.1,124.4c0.8,1.2,1.2,2.5,1.1,3.9c-0.1,2.2-1,4-2.6,5.5c-1.7,1.6-3.6,2.3-5.7,2.2c-1.3,0-2.6-0.5-3.8-1.4
			c-0.7-0.5-1.8-1.6-3.4-3.3c-1.6-1.7-2.6-2.9-3-3.6c-0.8-1.2-1.2-2.5-1.1-3.9c0.1-2.2,1-4,2.6-5.6c1.7-1.5,3.6-2.3,5.7-2.2
			c1.3,0,2.6,0.5,3.8,1.4c0.8,0.6,1.9,1.6,3.4,3.2C140.6,122.4,141.6,123.6,142.1,124.4z M134,121.5c-1.9-1.7-3.7-1.9-5.3-0.4
			c-1.6,1.5-1.6,3.2,0,5.3c0.3,0.3,0.9,1.1,2,2.3c1.1,1.2,1.8,1.9,2.1,2.2c2,1.7,3.7,1.9,5.3,0.4c0.9-0.8,1.3-1.8,1.2-3
			c-0.1-0.9-1.2-2.4-3.2-4.6C135,122.5,134.3,121.8,134,121.5z"/>
		<path class="st1" d="M157.5,119.3l-14.4-4.8l7.9,10l-3.2,2.6l-12.8-16.2l2.9-2.3l14.4,4.7l-7.9-9.9l3.2-2.6l12.8,16.2L157.5,119.3
			z"/>
		<path class="st1" d="M174.2,107.8l-7.5,4.8l-11.1-17.5l7.2-4.6c1.6-1,3.2-1.5,4.7-1.3c1.6,0.2,2.9,1.1,3.9,2.7c1,1.5,1,3.5,0.1,5
			c2.1-0.3,3.8,0.5,5,2.4C178.5,102.5,177.5,105.7,174.2,107.8z M164.5,93.8l-3.4,2.2l2.6,4l3.4-2.2c1.4-0.9,1.9-2.2,1-3.5
			C167.2,93,165.8,92.9,164.5,93.8z M169.2,100.7l-3.6,2.3l2.7,4.3l3.6-2.3c1.4-0.9,1.8-2.3,1-3.6C172,100,170.6,99.8,169.2,100.7z"
			/>
		<path class="st1" d="M172.6,78.8l1.8,3.2l-3.6,2.1l-1.8-3.2L172.6,78.8z M181.6,103.4l-10.1-18l3.6-2l10.1,18L181.6,103.4z"/>
		<path class="st1" d="M187.7,99.9l-9.2-18.5l3.7-1.8l7.6,15.3l8.6-4.3l1.6,3.2L187.7,99.9z"/>
		<path class="st1" d="M194.7,68l1.5,3.4l-3.8,1.7l-1.5-3.4L194.7,68z M201.3,93.3L193,74.4l3.8-1.7l8.3,18.9L201.3,93.3z"/>
		<path class="st1" d="M221.7,85.2l-4.1-11.3l-1.1,8.8l-2.6,1l-6.5-6l4.1,11.3l-3.9,1.4l-7.1-19.4l3.8-1.4l9,8.6l1.3-12.4l3.8-1.4
			l7.1,19.4L221.7,85.2z"/>
		<path class="st1" d="M240.5,79.9l-3,0.8l-11.8-18.4l4.1-1l7.4,12.1l0.8-14.1l4.2-1L240.5,79.9z"/>
		<path class="st1" d="M247.8,78.1l-3.6-20.4l13.7-2.5l0.6,3.6l-9.6,1.7l0.9,4.8l8.2-1.5l0.6,3.5l-8.2,1.5l0.9,5l9.6-1.7l0.6,3.6
			L247.8,78.1z"/>
		<path class="st1" d="M274.9,57.1l1.5,17l-4.1,0.4l-1.5-17l-5.5,0.5l-0.3-3.6l15.1-1.3l0.3,3.6L274.9,57.1z"/>
		<path class="st1" d="M283.1,73.6l-0.4-20.7l13.9-0.3l0.1,3.6l-9.8,0.2l0.1,4.9l8.3-0.2l0.1,3.6l-8.3,0.2l0.1,5l9.8-0.2l0.1,3.6
			L283.1,73.6z"/>
		<path class="st1" d="M311.2,74.1l-4.9-9.7l-2.9,3l-0.3,6.2l-4.1-0.2l1.1-20.7l4.1,0.2l-0.5,9l7.9-8.6l5,0.3l-7.4,7.8l6.8,12.9
			L311.2,74.1z"/>
		<path class="st1" d="M328.8,76.1l-6.5-13.8l-1.8,12.6l-4.1-0.6l2.9-20.5l3.6,0.5l6.5,13.7l1.8-12.5l4.1,0.6l-2.9,20.5L328.8,76.1z
			"/>
		<path class="st1" d="M350.7,74.6c-0.6,1.4-1.4,2.4-2.5,3.1c-1.8,1.2-3.8,1.5-6,1c-2.2-0.5-3.9-1.6-5.1-3.4
			c-0.7-1.1-1.1-2.4-1.1-3.9c0-0.9,0.3-2.4,0.7-4.6c0.5-2.2,0.9-3.7,1.2-4.5c0.6-1.4,1.4-2.4,2.5-3.1c1.8-1.2,3.8-1.5,6.1-1
			c2.2,0.5,3.9,1.6,5.1,3.4c0.7,1.1,1.1,2.4,1.1,3.9c0,1-0.3,2.5-0.7,4.6C351.5,72.2,351.1,73.7,350.7,74.6z M348.5,66.2
			c0.3-2.6-0.6-4.1-2.7-4.6c-2.1-0.5-3.6,0.6-4.4,3.1c-0.1,0.4-0.4,1.4-0.7,2.9c-0.3,1.6-0.5,2.6-0.6,3c-0.3,2.6,0.6,4.1,2.7,4.6
			c1.2,0.3,2.2,0,3.1-0.8c0.7-0.6,1.3-2.3,1.9-5.2C348.3,67.6,348.4,66.7,348.5,66.2z"/>
		<path class="st1" d="M351.8,80.7l5.7-19.9l4,1.1l-4.7,16.4l9.2,2.6l-1,3.5L351.8,80.7z"/>
		<path class="st1" d="M381.9,84.6c-0.7,1.3-1.7,2.2-3,2.7c-2,0.9-4,0.9-6.1,0.2c-2.1-0.8-3.7-2.1-4.6-4.1c-0.6-1.2-0.8-2.5-0.5-4
			c0.1-0.8,0.6-2.3,1.4-4.5c0.8-2.2,1.4-3.6,1.8-4.3c0.7-1.3,1.7-2.2,3-2.7c2-0.9,4-0.9,6.2-0.2c2.1,0.8,3.6,2.1,4.6,4.1
			c0.6,1.2,0.8,2.5,0.5,4c-0.2,1-0.6,2.4-1.4,4.5C383,82.4,382.4,83.8,381.9,84.6z M380.8,76c0.7-2.5,0-4.2-2.1-4.9
			c-2-0.7-3.6,0.1-4.7,2.4c-0.2,0.4-0.5,1.3-1.1,2.8c-0.5,1.5-0.9,2.5-1,2.9c-0.6,2.5,0,4.2,2.1,4.9c1.1,0.4,2.2,0.3,3.2-0.3
			c0.8-0.5,1.6-2.1,2.6-4.9C380.4,77.4,380.7,76.4,380.8,76z"/>
		<path class="st1" d="M390.5,92.7c-1.8,0.6-3.7,0.4-5.7-0.4c-2-0.9-3.4-2.2-4.1-4.1l3.6-1.3c0.4,1,1.1,1.7,2,2.2
			c2,0.9,3.5,0.3,4.5-1.9l5.6-12.5l3.8,1.7l-5.6,12.7C393.6,90.9,392.3,92.1,390.5,92.7z"/>
		<path class="st1" d="M394.1,96.3l9.2-18.5l3.7,1.8l-9.2,18.5L394.1,96.3z M409.3,75l-1.7,3.3l-3.8-1.9l1.7-3.3L409.3,75z"/>
		<path class="st1" d="M416.9,106.9c-1.9,0.4-3.9,0-5.8-1.1c-1.9-1.1-3.2-2.7-3.7-4.5c-0.6-2-0.3-3.8,0.8-5.7l7-11.7l3.5,2.1
			l-6.9,11.6c-1.2,2-0.8,3.9,1.2,5.1c2,1.2,3.9,0.6,5.1-1.4l6.9-11.6l3.5,2.1l-7,11.7C420.4,105.4,418.9,106.5,416.9,106.9z
			 M418.4,83.4l1.9-3.1l3.3,2l-1.9,3.1L418.4,83.4z M424,86.7l1.9-3.1l3.3,2l-1.9,3.1L424,86.7z"/>
		<path class="st1" d="M430.1,118.1l0.6-15.2l-7.4,10.3l-3.4-2.4l12-16.9l3,2.1l-0.5,15.2l7.4-10.3l3.4,2.4l-12,16.9L430.1,118.1z"
			/>
		<path class="st1" d="M435.3,122.1l13-16.1l3.2,2.6l-13,16.1L435.3,122.1z M454.7,104.6l-2.3,2.9l-3.3-2.6l2.3-2.9L454.7,104.6z"/>
		<path class="st1" d="M446.5,131.6l-2.3-2.1l8.5-20.1l3.2,2.8l-5.8,12.9l12.1-7.3l3.2,2.9L446.5,131.6z"/>
		<path class="st1" d="M452,136.7l14.8-14.5l9.7,9.9l-2.6,2.5l-6.9-7l-3.5,3.4l5.8,6l-2.6,2.5l-5.8-6l-3.6,3.5l6.9,7l-2.6,2.5
			L452,136.7z"/>
		<path class="st1" d="M470.3,156.6l3.6-8.5l-1.9-2.3l-6.3,5.3L463,148l15.8-13.4l5.4,6.3c1.3,1.5,1.9,3.1,1.9,4.8
			c-0.1,1.8-0.8,3.3-2.3,4.5c-2,1.7-4.4,1.9-6.6,0.6l-3.8,9.4L470.3,156.6z M481.3,143.1l-2.5-3l-4.2,3.5l2.5,3
			c1.1,1.3,2.8,1.6,4,0.5C482.4,146.1,482.4,144.4,481.3,143.1z"/>
		<path class="st1" d="M481.8,169.6c-1.7-0.6-3.1-1.7-4.4-3.5c-1.9-2.7-2.7-5.3-2.3-7.9l3.7,0.6c-0.2,1.6,0.3,3.4,1.6,5.2
			c1.5,2,2.9,2.5,4.3,1.5c1.2-0.8,1.3-2,0.5-3.5l-1.2-2.3c-1.8-3.3-1.3-6,1.4-7.9c1.6-1.2,3.3-1.5,5.1-1c1.6,0.5,3.1,1.5,4.3,3.3
			c1.7,2.3,2.4,4.6,2.1,6.9l-3.6-0.6c0.2-1.4-0.3-2.8-1.4-4.3c-0.5-0.7-1.1-1.2-1.8-1.5c-0.8-0.3-1.5-0.1-2.2,0.4
			c-1.1,0.8-1.2,1.9-0.3,3.4l1.2,2.2c1.8,3.4,1.3,6.1-1.5,8.1C485.4,170,483.7,170.2,481.8,169.6z"/>
		<path class="st1" d="M483.1,173.9l17.3-11.3l2.3,3.5l-17.3,11.3L483.1,173.9z M507,163.3l-3.1,2l-2.3-3.5l3.1-2L507,163.3z"/>
		<path class="st1" d="M505.8,178.1l-14.8,8.6l-2.1-3.6l14.8-8.6l-2.8-4.8l3.1-1.8l7.7,13.1l-3.1,1.8L505.8,178.1z"/>
		<path class="st1" d="M494.3,192.6l18.5-9.2l6.2,12.5l-3.2,1.6l-4.3-8.8l-4.3,2.2l3.7,7.5l-3.2,1.6l-3.7-7.5l-4.5,2.2l4.3,8.8
			l-3.2,1.6L494.3,192.6z"/>
		<path class="st1" d="M506.8,216.8c-1.5-0.9-2.6-2.4-3.4-4.4c-1.2-3.1-1.4-5.8-0.4-8.2l3.4,1.5c-0.6,1.5-0.5,3.3,0.3,5.4
			c0.9,2.3,2.2,3.1,3.8,2.5c1.3-0.5,1.8-1.6,1.3-3.3l-0.6-2.5c-1-3.7,0.1-6.1,3.2-7.4c1.9-0.8,3.6-0.7,5.2,0.3
			c1.5,0.8,2.6,2.2,3.4,4.2c1.1,2.6,1.2,5.1,0.4,7.2l-3.3-1.5c0.5-1.3,0.4-2.8-0.3-4.6c-0.3-0.9-0.8-1.5-1.4-1.9
			c-0.7-0.5-1.4-0.5-2.2-0.2c-1.2,0.5-1.6,1.6-1.1,3.3l0.6,2.4c0.9,3.7-0.2,6.2-3.4,7.5C510.2,218,508.4,217.8,506.8,216.8z"/>
		<path class="st1" d="M507,221.3l19.5-6.8l1.4,3.9l-19.5,6.8L507,221.3z M532.8,216.7l-3.5,1.2l-1.4-4l3.5-1.2L532.8,216.7z"/>
	</g>
</g>
</svg>
